<?xml version="1.0" encoding="UTF-8" standalone="no"?>
<svg id="svg5500" xmlns="http://www.w3.org/2000/svg" height="32" viewBox="0 0 8.4666665 8.4666669" width="32" version="1.1">
 <path id="path4761" style="opacity:.2;color-rendering:auto;color:#000000;isolation:auto;mix-blend-mode:normal;paint-order:stroke fill markers;shape-rendering:auto;solid-color:#000000;image-rendering:auto" d="m8.337 4.275c0.04029 0-0.6777-0.142-0.6777-0.142l-3.376 2.065-0.008 1.895 0.411-0.246 3.481-3.08z"/>
 <path id="path4763" style="opacity:.1;color-rendering:auto;color:#000000;isolation:auto;mix-blend-mode:normal;paint-order:stroke fill markers;shape-rendering:auto;solid-color:#000000;image-rendering:auto" d="m4.024 0.4966-3.189 3.554-0.6771 0.143 0.0575-0.439z"/>
 <path id="path4854" style="opacity:.2;color-rendering:auto;color:#000000;isolation:auto;mix-blend-mode:normal;paint-order:stroke fill markers;shape-rendering:auto;solid-color:#000000;image-rendering:auto" d="m0.1375 4.306c-0.04029 0 0.704-0.158 0.704-0.158l3.342 2.05 0.008 1.895-0.412-0.252-3.34-2.971z"/>
 <path id="path4856" style="opacity:.1;color-rendering:auto;color:#000000;isolation:auto;mix-blend-mode:normal;paint-order:stroke fill markers;shape-rendering:auto;solid-color:#000000;image-rendering:auto" d="m4.465 0.5028 3.204 3.553 0.651 0.142-0.096-0.443z"/>
 <path id="path4789" d="m8.339 4.185c0.006-0.206-0.086-0.454-0.345-0.672l-3.295-2.916c-0.299-0.2058-0.519-0.2402-0.921 0.0119l-3.294 2.904c-0.3936 0.358-0.3536 0.502-0.3539 0.672v0.09606c0.002902 0.1455 0.01631 0.4183 0.3542 0.6727l3.294 2.903c0.4025 0.252 0.6222 0.2181 0.9215 0.01283l3.294-2.916c0.297-0.272 0.343-0.384 0.346-0.673z" style="stroke-linejoin:round;stroke:#000;stroke-width:.1693;stroke-linecap:round;fill:none"/>
</svg>
