<?xml version="1.0" encoding="UTF-8" standalone="no"?>
<svg id="svg5500" xmlns="http://www.w3.org/2000/svg" height="32" viewBox="0 0 8.4666665 8.4666669" width="32" version="1.1">
 <g id="g4873" transform="matrix(1.09 0 0 1.09 -.3823 -.3823)">
  <path id="circle4802" style="opacity:.2;color-rendering:auto;color:#000000;isolation:auto;mix-blend-mode:normal;paint-order:stroke fill markers;shape-rendering:auto;solid-color:#000000;image-rendering:auto" d="m4.233 0.4046c-2.114 0.000552-3.827 1.714-3.828 3.828-1e-7 2.114 1.714 3.828 3.828 3.829 2.115 0 3.829-1.714 3.829-3.829-0.001-2.115-1.715-3.828-3.829-3.828zm0 0.138c2.349 0.0066 3.032 1.874 3.024 2.988-0.009 1.287-1.354 2.502-3.024 2.502s-3.006-1.242-3.024-2.502c-0.016-1.114 0.707-2.995 3.024-2.988z"/>
  <circle id="path4800" cy="4.233" cx="4.233" r="3.737" style="stroke-linejoin:round;color-rendering:auto;color:#000000;isolation:auto;mix-blend-mode:normal;paint-order:stroke fill markers;shape-rendering:auto;solid-color:#000000;stroke:#000;stroke-linecap:round;image-rendering:auto;stroke-width:.291;fill:none"/>
 </g>
</svg>
