<?xml version="1.0" encoding="UTF-8" standalone="no"?>
<svg id="svg5500" xmlns="http://www.w3.org/2000/svg" height="32" viewBox="0 0 8.4666665 8.4666669" width="32" version="1.1">
 <g id="g4873" transform="matrix(1.09 0 0 1.09 -.3823 -.3823)">
  <path id="circle4802" d="m4.233 0.4046a3.829 3.829 0 0 0 -3.828 3.828 3.829 3.829 0 0 0 3.828 3.829 3.829 3.829 0 0 0 3.829 -3.829 3.829 3.829 0 0 0 -3.829 -3.828zm0 0.138a3.024 2.017 0 0 1 3.024 2.017 3.024 2.017 0 0 1 -3.024 2.017 3.024 2.017 0 0 1 -3.024 -2.017 3.024 2.017 0 0 1 3.024 -2.017z" style="color-rendering:auto;color:#000000;isolation:auto;mix-blend-mode:normal;paint-order:stroke fill markers;shape-rendering:auto;solid-color:#000000;image-rendering:auto;fill:#b8abab"/>
  <circle id="path4800" cx="4.233" cy="4.233" r="3.737" style="stroke-linejoin:round;color-rendering:auto;color:#000000;shape-rendering:auto;solid-color:#000000;stroke:#000;stroke-linecap:round;stroke-width:.2910;fill:none;mix-blend-mode:normal;image-rendering:auto;isolation:auto;paint-order:stroke fill markers"/>
 </g>
</svg>
