<?xml version="1.0" encoding="UTF-8" standalone="no"?>
<svg id="svg5500" xmlns="http://www.w3.org/2000/svg" height="32" viewBox="0 0 8.4666665 8.4666669" width="32" version="1.1">
 <path id="path10066" style="stroke-linejoin:round;stroke:#000;stroke-width:.1911;stroke-linecap:round;fill:none" d="m7.952 5.811c0.431-0.28 0.456-0.501 0.296-0.864l-1.229-3.455c-0.12-0.4993-0.32-0.5962-0.717-0.5669l-2.061-0.001987-2.061 0.001987c-0.397-0.0293-0.596 0.0676-0.717 0.5669l-1.255 3.454c-0.1593 0.364-0.1346 0.584 0.2966 0.865l3.266 2.228c0.399 0.325 0.616 0.28 0.914 0.016z"/>
 <g id="g4798">
  <path id="path4790" style="opacity:.3;color-rendering:auto;color:#000000;isolation:auto;mix-blend-mode:normal;paint-order:stroke fill markers;shape-rendering:auto;solid-color:#000000;image-rendering:auto;stroke-width:.8523" d="m6.363 0.7311h-4.251l2.127-0.7002z"/>
  <path id="path4792" style="opacity:.3;color-rendering:auto;color:#000000;isolation:auto;mix-blend-mode:normal;paint-order:stroke fill markers;shape-rendering:auto;solid-color:#000000;image-rendering:auto;stroke-width:.8521" d="m1.445 1.052-1.445 3.997 0.06484-2.237z"/>
  <path id="path4794" style="opacity:.3;color-rendering:auto;color:#000000;isolation:auto;mix-blend-mode:normal;paint-order:stroke fill markers;shape-rendering:auto;solid-color:#000000;image-rendering:auto;stroke-width:.8521" d="m7.025 1.052 1.445 3.997-0.064-2.237z"/>
  <path id="path4796" style="opacity:.3;color-rendering:auto;color:#000000;isolation:auto;mix-blend-mode:normal;paint-order:stroke fill markers;shape-rendering:auto;solid-color:#000000;image-rendering:auto;stroke-width:.9534" d="m4.479 8.435 3.901-2.719-1.503 2.002z"/>
  <path id="path4798" style="opacity:.3;color-rendering:auto;color:#000000;isolation:auto;mix-blend-mode:normal;paint-order:stroke fill markers;shape-rendering:auto;solid-color:#000000;image-rendering:auto;stroke-width:.9534" d="m4.017 8.435-3.901-2.719 1.503 2.002z"/>
 </g>
</svg>
