<?xml version="1.0" encoding="UTF-8" standalone="no"?>
<svg id="svg5500" xmlns="http://www.w3.org/2000/svg" height="32" viewBox="0 0 8.4666665 8.4666669" width="32" version="1.1">
 <path id="path10066" style="stroke-linejoin:round;stroke:#000;stroke-width:.1911;stroke-linecap:round;fill:none" d="m7.952 5.811c0.431-0.28 0.456-0.501 0.296-0.864l-1.229-3.455c-0.12-0.4993-0.32-0.5962-0.717-0.5669l-2.061-0.001987-2.061 0.001987c-0.397-0.0293-0.596 0.0676-0.717 0.5669l-1.255 3.454c-0.1593 0.364-0.1346 0.584 0.2966 0.865l3.266 2.228c0.399 0.325 0.616 0.28 0.914 0.016z"/>
 <g id="g4806" style="opacity:.1;fill:#080808" transform="matrix(.9937 0 0 .9937 .02163 .3876)">
  <path id="path4790" style="opacity:1;color-rendering:auto;color:#000000;isolation:auto;mix-blend-mode:normal;paint-order:stroke fill markers;shape-rendering:auto;solid-color:#000000;image-rendering:auto;fill:#080808" d="m4.278 0.3457-2.175-1e-8 1.088-1.884z" transform="matrix(1.967 0 0 .3740 -2.033 .2164)"/>
  <path id="path4792" style="opacity:1;color-rendering:auto;color:#000000;isolation:auto;mix-blend-mode:normal;paint-order:stroke fill markers;shape-rendering:auto;solid-color:#000000;image-rendering:auto;fill:#080808" transform="matrix(.6686 -1.849 .3517 .1271 -1.549 8.535)" d="m4.278 0.3457-2.175-1e-8 1.088-1.884z"/>
  <path id="path4794" style="opacity:1;color-rendering:auto;color:#000000;isolation:auto;mix-blend-mode:normal;paint-order:stroke fill markers;shape-rendering:auto;solid-color:#000000;image-rendering:auto;fill:#080808" d="m4.278 0.3457-2.175-1e-8 1.088-1.884z" transform="matrix(-.6686 -1.849 -.3517 .1271 10.03 8.535)"/>
  <path id="path4796" style="opacity:1;color-rendering:auto;color:#000000;isolation:auto;mix-blend-mode:normal;paint-order:stroke fill markers;shape-rendering:auto;solid-color:#000000;image-rendering:auto;fill:#080808" transform="matrix(-1.805 1.258 -.2393 -.3432 12.29 2.835)" d="m4.278 0.3457-2.175-1e-8 1.088-1.884z"/>
  <path id="path4798" style="opacity:1;color-rendering:auto;color:#000000;isolation:auto;mix-blend-mode:normal;paint-order:stroke fill markers;shape-rendering:auto;solid-color:#000000;image-rendering:auto;fill:#080808" d="m4.278 0.3457-2.175-1e-8 1.088-1.884z" transform="matrix(1.805 1.258 .2393 -.3432 -3.784 2.835)"/>
 </g>
</svg>
