<?xml version="1.0" encoding="UTF-8" standalone="no"?>
<svg id="svg5500" xmlns="http://www.w3.org/2000/svg" height="32" viewBox="0 0 8.4666665 8.4666669" width="32" version="1.1">
 <g id="g4838" transform="matrix(1.018 0 0 1.018 -.07315 -.07444)">
  <path id="circle4802" d="m4.706 0.27a3.614 3.963 0 0 0 -0.552 0.0498 3.701 3.916 0 0 1 0.053 -0.0022 3.701 3.916 0 0 1 3.7 3.915 3.701 3.916 0 0 1 -3.7 3.916 3.701 3.916 0 0 1 -0.042 -0.002 3.614 3.963 0 0 0 0.541 0.05 3.614 3.963 0 0 0 3.614 -3.964 3.614 3.963 0 0 0 -3.614 -3.963z" style="color-rendering:auto;color:#000000;isolation:auto;mix-blend-mode:normal;paint-order:stroke fill markers;shape-rendering:auto;solid-color:#000000;image-rendering:auto;fill:#b8abab"/>
  <circle id="path4800" cx="3.907" cy="4.233" r="3.761" style="stroke-linejoin:round;color-rendering:auto;color:#000000;shape-rendering:auto;solid-color:#000000;stroke:#000;stroke-linecap:round;stroke-width:.2929;fill:none;mix-blend-mode:normal;image-rendering:auto;isolation:auto;paint-order:stroke fill markers"/>
 </g>
</svg>
