<?xml version="1.0" encoding="UTF-8" standalone="no"?>
<svg id="svg5500" xmlns="http://www.w3.org/2000/svg" height="32" viewBox="0 0 8.4666665 8.4666669" width="32" version="1.1">
 <path id="path4758" style="opacity:.1;color-rendering:auto;color:#000000;isolation:auto;mix-blend-mode:normal;paint-order:stroke fill markers;shape-rendering:auto;solid-color:#000000;image-rendering:auto" d="m0.6866 5.849 0.6964-3.251 2.835 5.033z"/>
 <path id="path4761" style="opacity:.1;color-rendering:auto;color:#000000;isolation:auto;mix-blend-mode:normal;paint-order:stroke fill markers;shape-rendering:auto;solid-color:#000000;image-rendering:auto" d="m7.787 5.849c0.08192 0-0.5775-3.218-0.5775-3.218l-2.918 5.001z"/>
 <path id="path4763" style="opacity:.1;color-rendering:auto;color:#000000;isolation:auto;mix-blend-mode:normal;paint-order:stroke fill markers;shape-rendering:auto;solid-color:#000000;image-rendering:auto" d="m4.248 0.1437 2.909 2.404-5.735 0.002z"/>
 <path id="path4765" style="opacity:.2;color-rendering:auto;color:#000000;isolation:auto;mix-blend-mode:normal;paint-order:stroke fill markers;shape-rendering:auto;solid-color:#000000;image-rendering:auto" d="m4.502 0.2116 3.133 2.164-0.383 0.168z"/>
 <path id="path4767" style="opacity:.2;color-rendering:auto;color:#000000;isolation:auto;mix-blend-mode:normal;paint-order:stroke fill markers;shape-rendering:auto;solid-color:#000000;image-rendering:auto" d="m4.04 0.1778-3.247 2.163 0.567 0.185z"/>
 <path id="path4769" style="opacity:.2;color-rendering:auto;color:#000000;isolation:auto;mix-blend-mode:normal;paint-order:stroke fill markers;shape-rendering:auto;solid-color:#000000;image-rendering:auto" d="m0.6153 5.912-0.0215-3.208 0.1893-0.3 0.5539 0.176z"/>
 <path id="path4771" style="opacity:.2;color-rendering:auto;color:#000000;isolation:auto;mix-blend-mode:normal;paint-order:stroke fill markers;shape-rendering:auto;solid-color:#000000;image-rendering:auto" d="m7.894 5.891 0.022-3.208-0.185-0.285-0.462 0.205z"/>
 <path id="path4773" style="opacity:.2;color-rendering:auto;color:#000000;isolation:auto;mix-blend-mode:normal;paint-order:stroke fill markers;shape-rendering:auto;solid-color:#000000;image-rendering:auto" d="m4.227 7.733v0.657l-3.595-2.488z"/>
 <path id="path4775" style="opacity:.2;color-rendering:auto;color:#000000;isolation:auto;mix-blend-mode:normal;paint-order:stroke fill markers;shape-rendering:auto;solid-color:#000000;image-rendering:auto" d="m4.283 7.738-0.0028 0.6477 3.549-2.483z"/>
 <path id="path4789" style="stroke-linejoin:round;stroke:#000;stroke-width:.167;stroke-linecap:round;fill:none" d="m7.896 3.026c0.005-0.301 0.08-0.496-0.308-0.734l-2.939-2.028c-0.267-0.224-0.463-0.2616-0.822 0.0136l-2.938 2.014c-0.3725 0.24-0.3369 0.441-0.3157 0.734v2.415c-0.02119 0.2926-0.05679 0.4944 0.3159 0.7342l2.938 2.014c0.359 0.275 0.555 0.238 0.822 0.014l2.939-2.028c0.388-0.238 0.313-0.433 0.308-0.734z"/>
</svg>
