<?xml version="1.0" encoding="UTF-8" standalone="no"?>
<svg id="svg5500" xmlns="http://www.w3.org/2000/svg" height="32" viewBox="0 0 8.4666665 8.4666669" width="32" version="1.1">
 <g id="g4950" transform="matrix(1.088 0 0 1.088 -.3735 -.3735)">
  <rect id="rect4938" style="stroke-linejoin:round;color-rendering:auto;color:#000000;shape-rendering:auto;solid-color:#000000;stroke:#000;stroke-linecap:round;stroke-width:.1910;fill:none;mix-blend-mode:normal;image-rendering:auto;isolation:auto;paint-order:stroke fill markers" ry=".9050" height="7.589" width="7.589" y=".4387" x=".4387"/>
  <path id="rect4940" d="m5.078 1.658c-1.895 0-3.42 1.525-3.42 3.42v7.947c0-6.297 5.07-11.37 11.37-11.37zm13.9 0c6.297 0 11.37 5.07 11.37 11.37v-7.952c0-1.895-1.525-3.42-3.42-3.42zm-17.32 17.31v7.947c0 1.895 1.525 3.42 3.42 3.42h7.947c-6.297 0-11.37-5.07-11.37-11.37zm28.68 0c0 6.297-5.07 11.37-11.37 11.37h7.947c1.895 0 3.42-1.525 3.42-3.42z" style="opacity:.2;color-rendering:auto;color:#000000;isolation:auto;mix-blend-mode:normal;paint-order:stroke fill markers;shape-rendering:auto;solid-color:#000000;image-rendering:auto;fill:#080808" transform="scale(.2646)"/>
 </g>
</svg>
