<?xml version="1.0" encoding="UTF-8" standalone="no"?>
<svg id="svg5500" xmlns="http://www.w3.org/2000/svg" height="32" viewBox="0 0 8.4666665 8.4666669" width="32" version="1.1">
 <path id="path9977" style="stroke-linejoin:round;stroke:#000;stroke-width:.1950;stroke-linecap:round;fill:none" d="m4.248 0.1a0.5838 0.51 0 0 0 -0.514 0.2452l-2.472 3.606a0.5838 0.51 0 0 0 -0.07621 0.2905 0.5838 0.51 0 0 0 0 0.002 0.5838 0.51 0 0 0 0 0.002 0.5838 0.51 0 0 0 0.07621 0.2905l2.472 3.606a0.5838 0.51 0 0 0 0.9984 0l2.472-3.606a0.5838 0.51 0 0 0 0.07669 -0.292 0.5838 0.51 0 0 0 -0.07669 -0.292l-2.472-3.606a0.5838 0.51 0 0 0 -0.484 -0.2452z"/>
 <path id="path4777" style="opacity:.1" d="m1.185 4.242c-0.0000015 0.0006667-0.0000015 0.00133 0 0.002-0.0000015 0.0006667-0.0000015 0.00133 0 0.002-0.00827 0.1013 0.01826 0.2025 0.07621 0.2905l2.472 3.606c0.2272 0.3276 0.7712 0.3276 0.9984 0l2.472-3.606c0.05845-0.08843 0.08516-0.1902 0.07669-0.292 0.00847-0.1018-6.104-0.1038-6.096-0.0025z"/>
</svg>
