<?xml version="1.0" encoding="UTF-8" standalone="no"?>
<svg
   xmlns:dc="http://purl.org/dc/elements/1.1/"
   xmlns:cc="http://creativecommons.org/ns#"
   xmlns:rdf="http://www.w3.org/1999/02/22-rdf-syntax-ns#"
   xmlns:svg="http://www.w3.org/2000/svg"
   xmlns="http://www.w3.org/2000/svg"
   xmlns:sodipodi="http://sodipodi.sourceforge.net/DTD/sodipodi-0.dtd"
   xmlns:inkscape="http://www.inkscape.org/namespaces/inkscape"
   id="svg5500"
   height="32"
   viewBox="0 0 8.4666665 8.4666669"
   width="32"
   version="1.1"
   sodipodi:docname="d8.svg"
   inkscape:version="0.92.2 5c3e80d, 2017-08-06">
  <metadata
     id="metadata946">
    <rdf:RDF>
      <cc:Work
         rdf:about="">
        <dc:format>image/svg+xml</dc:format>
        <dc:type
           rdf:resource="http://purl.org/dc/dcmitype/StillImage" />
      </cc:Work>
    </rdf:RDF>
  </metadata>
  <defs
     id="defs944" />
  <sodipodi:namedview
     pagecolor="#ffffff"
     bordercolor="#666666"
     borderopacity="1"
     objecttolerance="10"
     gridtolerance="10"
     guidetolerance="10"
     inkscape:pageopacity="0"
     inkscape:pageshadow="2"
     inkscape:window-width="1920"
     inkscape:window-height="1009"
     id="namedview942"
     showgrid="false"
     inkscape:zoom="14.75"
     inkscape:cx="3.4016044"
     inkscape:cy="11.117133"
     inkscape:window-x="0"
     inkscape:window-y="0"
     inkscape:window-maximized="1"
     inkscape:current-layer="svg5500" />
  <path
     id="path9977"
     style="fill:none;stroke:#000000;stroke-width:0.19737071;stroke-linecap:round;stroke-linejoin:round"
     d="m 4.2481211,0.1 a 0.59780863,0.51 0 0 0 -0.526306,0.2452 l -2.5318954,3.606 a 0.59780863,0.51 0 0 0 -0.078044,0.2905 0.59780863,0.51 0 0 0 0,0.002 0.59780863,0.51 0 0 0 0,0.002 0.59780863,0.51 0 0 0 0.078044,0.2905 l 2.5318954,3.606 a 0.59780863,0.51 0 0 0 1.0224871,0 l 2.5318955,-3.606 a 0.59780863,0.51 0 0 0 0.078536,-0.292 0.59780863,0.51 0 0 0 -0.078536,-0.292 L 4.7443022,0.3462 A 0.59780863,0.51 0 0 0 4.2484728,0.1008 Z"
     inkscape:connector-curvature="0" />
</svg>
