<?xml version="1.0" encoding="UTF-8" standalone="no"?>
<svg id="svg11300" style="enable-background:new" xmlns="http://www.w3.org/2000/svg" xmlns:osb="http://www.openswatchbook.org/uri/2009/osb" height="512" width="512" version="1.0" xmlns:xlink="http://www.w3.org/1999/xlink">
 <title id="title3004">Template</title>
 <defs id="defs3">
  <linearGradient id="a" y2="298.7" gradientUnits="userSpaceOnUse" y1="-212.3" gradientTransform="translate(0,212)" x2="241.3" x1="240.3">
   <stop id="stop6703" style="stop-color:#f6f6f6" offset="0"/>
   <stop id="stop6705" style="stop-color:#eae9e7" offset="1"/>
  </linearGradient>
 </defs>
 <rect id="rect6701" style="color-rendering:auto;color:#000000;isolation:auto;mix-blend-mode:normal;paint-order:stroke fill markers;shape-rendering:auto;solid-color:#000000;image-rendering:auto;enable-background:accumulate;fill:url(#a)" height="512" width="512" y="1" x=".8066"/>
 <g id="g6" style="opacity:.3;enable-background:new;fill:#be2020" transform="matrix(-.4329 -.4329 .4329 -.4329 87.85 286)">
  <g id="g4" style="fill:#be2020">
   <path id="path2" style="fill:#be2020" d="m90.12 1h-80.24c-4.902 0-8.88 3.978-8.88 8.884v80.24c0 4.9 3.978 8.88 8.884 8.88h80.24c4.9 0 8.88-3.98 8.88-8.88v-80.24c0-4.902-3.98-8.88-8.88-8.88zm-68.12 83.5c-3.59 0-6.5-2.91-6.5-6.5s2.91-6.5 6.5-6.5c3.589 0 6.5 2.91 6.5 6.5s-2.911 6.5-6.5 6.5zm0-28c-3.59 0-6.5-2.91-6.5-6.5s2.91-6.5 6.5-6.5 6.5 2.91 6.5 6.5-2.91 6.5-6.5 6.5zm0-28c-3.59 0-6.5-2.91-6.5-6.5s2.91-6.5 6.5-6.5 6.5 2.91 6.5 6.5-2.91 6.5-6.5 6.5zm56 56c-3.59 0-6.5-2.91-6.5-6.5s2.91-6.5 6.5-6.5 6.5 2.91 6.5 6.5-2.91 6.5-6.5 6.5zm0-28c-3.59 0-6.5-2.91-6.5-6.5s2.91-6.5 6.5-6.5 6.5 2.91 6.5 6.5-2.91 6.5-6.5 6.5zm0-28c-3.59 0-6.5-2.911-6.5-6.5 0-3.59 2.91-6.5 6.5-6.5s6.5 2.91 6.5 6.5c0 3.589-2.91 6.5-6.5 6.5z"/>
  </g>
 </g>
 <g id="g15540" style="opacity:.3;enable-background:new" transform="matrix(.2711 0 0 .2711 353.8 233)">
  <path id="path3735-2" d="m256 107.3-117.4 204.1 235.9-1.014zm-0.0332 94.59c3.513 0 6.522 0.5332 9.031 1.6 2.509 1.066 4.549 2.445 6.117 4.139 1.631 1.631 2.792 3.452 3.482 5.459 0.7528 2.007 1.129 3.95 1.129 5.832 0 1.819-0.2831 3.547-0.8477 5.178-0.5019 1.568-1.223 3.042-2.164 4.422-0.8782 1.38-1.912 2.603-3.104 3.67-1.129 1.066-2.323 2.009-3.578 2.824 7.402 3.513 11.17 9.064 11.29 16.65-0.00002 2.635-0.4673 5.082-1.408 7.34-0.8782 2.196-2.23 4.14-4.049 5.834-1.756 1.631-3.982 2.885-6.68 3.764-2.697 0.941-5.803 1.41-9.316 1.41-4.078 0-7.496-0.5642-10.26-1.693-2.697-1.192-4.861-2.665-6.492-4.422-1.631-1.756-2.792-3.668-3.482-5.738-0.69-2.133-1.035-4.141-1.035-6.023 0.00002-1.819 0.2831-3.547 0.8477-5.178 0.6273-1.694 1.411-3.26 2.352-4.703 1.004-1.443 2.132-2.728 3.387-3.857 1.317-1.192 2.7-2.227 4.143-3.105-6.148-3.513-9.225-8.69-9.225-15.53 0-2.384 0.4711-4.641 1.412-6.773 0.941-2.196 2.259-4.109 3.953-5.74 1.756-1.631 3.858-2.918 6.305-3.859 2.447-1.004 5.176-1.504 8.188-1.504zm0 7.244c-2.007 0-3.733 0.316-5.176 0.9434-1.38 0.6273-2.51 1.442-3.389 2.445-0.8782 0.941-1.536 2.005-1.975 3.197-0.3764 1.129-0.5664 2.26-0.5664 3.389 0 1.38 0.2521 2.762 0.7539 4.143 0.5019 1.38 1.287 2.664 2.354 3.855 1.066 1.192 2.445 2.258 4.139 3.199 1.756 0.941 3.827 1.693 6.211 2.258 2.635-1.568 4.736-3.387 6.305-5.457 1.568-2.133 2.352-4.894 2.352-8.281 0-0.941-0.2191-1.976-0.6582-3.105-0.3764-1.129-1.005-2.165-1.883-3.105-0.8782-1.004-2.005-1.818-3.385-2.445-1.38-0.69-3.075-1.035-5.082-1.035zm-3.67 28.98c-2.823 1.568-5.02 3.511-6.588 5.832-1.506 2.321-2.258 5.082-2.258 8.281 0 1.129 0.188 2.32 0.5644 3.574 0.4391 1.192 1.16 2.322 2.164 3.389 1.004 1.004 2.289 1.851 3.857 2.541s3.546 1.035 5.93 1.035c2.133 0 3.982-0.316 5.551-0.9434 1.631-0.6273 2.947-1.411 3.951-2.352 1.004-1.004 1.758-2.132 2.26-3.387 0.5018-1.255 0.7539-2.54 0.7539-3.857 0-2.007-0.3761-3.766-1.129-5.271-0.7528-1.506-1.852-2.82-3.295-3.949-1.38-1.129-3.075-2.071-5.082-2.824-1.945-0.8155-4.17-1.504-6.68-2.068z" style="stroke-width:3.019;fill:#ab0000" transform="translate(0,-212)"/>
  <path id="path3737-5" style="stroke-width:3.019;fill:#ab0000" d="m131.9 98.49-1.7-115.8 118.8-87.69z"/>
  <path id="path3739-8" style="stroke-width:3.019;fill:#ab0000" d="m380 97.23 1.8-113.8-119.5-88.53z"/>
  <path id="path3741-0" style="stroke-width:3.019;fill:#ab0000" d="m256 193.1-117.4-87.6 235.9-1.9z"/>
 </g>
 <path id="path11379" style="opacity:.3;stroke-width:.2553;fill:#ab0000" d="m8.036 208.5a7.297 7.297 0 0 0 -6.424 3.511l-30.9 51.58a7.297 7.297 0 0 0 6.24 10.95h61.82a7.297 7.297 0 0 0 6.24 -10.95l-30.89-51.6a7.297 7.297 0 0 0 -6.051 -3.511zm0.2068 25.45h3.304v16.34h3.046v2.821h-3.046v6.572h-3.346v-6.572h-11.51v-2.34c0.4703-1.089 1.114-2.352 1.931-3.789 0.8171-1.461 1.733-2.959 2.747-4.494 1.04-1.535 2.142-3.046 3.307-4.53 1.188-1.486 2.377-2.821 3.564-4.011zm-0.03708 4.085c-0.7428 0.7923-1.498 1.684-2.266 2.673-0.7428 0.9657-1.473 1.98-2.191 3.046-0.718 1.064-1.398 2.154-2.042 3.268-0.6189 1.114-1.176 2.203-1.671 3.268h8.17z"/>
 <g id="g5167" style="opacity:.3;fill:#ab0000" transform="matrix(.5732 -.5732 .5732 .5732 405.8 244)">
  <path id="path5157" style="stroke-width:1.168;fill:#ab0000" d="m91.49 43.06-30.92 64.94 28.45 18.6 30.78-18.6zm-0.1173 39.04h3.93v19.44h3.637v3.373h-3.64v7.801h-3.96v-7.8h-13.7v-2.786c0.5572-1.29 1.32-2.816 2.288-4.517 0.9678-1.73 2.053-3.519 3.285-5.338 1.232-1.818 2.552-3.637 3.93-5.396 1.408-1.76 2.816-3.373 4.223-4.781zm-0.02933 4.869c-0.8799 0.9385-1.789 1.994-2.698 3.167-0.8799 1.173-1.76 2.376-2.61 3.637-0.8505 1.261-1.672 2.552-2.434 3.901-0.7332 1.32-1.378 2.61-1.994 3.871h9.737z"/>
  <path id="path5171" style="stroke-width:3.982;fill:#ab0000" d="m265.4 101.7 97.5 222.7 56.5-18.3 3.6-90z" transform="matrix(.2933 0 0 .2933 15.13 12.17)"/>
  <path id="path5161" style="stroke-width:1.168;fill:#ab0000" d="m89.98 128.1v10.01l47.61-33.59-15.9 4.468z"/>
  <path id="path5163" d="m255.3 102.7-166.9 107.7 4.881 90.4 55.42 23.8zm-107.2 109.3c4.121-0.0903 7.888 1.262 11.28 4.055 4.857 4.061 6.877 9.4 5.986 16.02-0.8945 6.689-4.671 14-11.48 22.08-6.808 8.077-13.4 13.1-19.85 15.14-2.448 0.7729-4.732 1.111-6.924 1.086-3.72-0.1883-7.093-1.536-10.12-4.047-4.93-4.062-6.95-9.402-6.129-16.09 0.8911-6.616 4.739-13.92 11.55-22 6.808-8.077 13.4-13.1 19.86-15.21 2.017-0.6368 3.963-0.9765 5.836-1.018zm0.7988 7.719c-2.049 0.0493-4.199 0.6816-6.375 1.895-2.173 1.14-4.443 2.789-6.736 4.947-2.217 2.086-4.522 4.534-6.689 7.131-2.244 2.668-4.193 5.268-5.922 7.869-1.729 2.602-2.94 5.065-3.705 7.387-0.7655 2.321-1.012 4.502-0.668 6.545 0.2744 1.969 1.218 3.727 2.98 5.131 1.477 1.255 3.127 1.928 4.877 2.021 0.2923 0.003 0.513 0.007 0.8086-0.0625 2.049-0.0493 4.124-0.6802 6.297-1.82 2.176-1.213 4.445-2.863 6.662-4.949 2.293-2.158 4.598-4.535 6.838-7.131 2.171-2.669 4.119-5.268 5.848-7.869 1.729-2.602 2.94-5.063 3.709-7.457 0.7652-2.321 1.086-4.502 0.7422-6.545-0.2744-1.969-1.294-3.657-3.057-5.061-1.69-1.403-3.56-2.081-5.609-2.031z" style="stroke-width:3.982;fill:#ab0000" transform="matrix(.2933 0 0 .2933 15.13 12.17)"/>
  <path id="path5165" style="stroke-width:1.168;fill:#ab0000" d="m87.76 127.9v10.22l-45.58-35.23 15.78 6.161z"/>
 </g>
 <g id="g4836" style="fill:#ab0000" transform="matrix(3.007 0 0 3.007 -14.99 -14.85)">
  <path id="path11287" style="stroke-width:1.168;fill:#ab0000" d="m91.49 43.06-30.92 64.94 28.45 18.6 30.78-18.6zm-0.1173 39.04h3.93v19.44h3.637v3.373h-3.64v7.801h-3.96v-7.8h-13.7v-2.786c0.5572-1.29 1.32-2.816 2.288-4.517 0.9678-1.73 2.053-3.519 3.285-5.338 1.232-1.818 2.552-3.637 3.93-5.396 1.408-1.76 2.816-3.373 4.223-4.781zm-0.02933 4.869c-0.8799 0.9385-1.789 1.994-2.698 3.167-0.8799 1.173-1.76 2.376-2.61 3.637-0.8505 1.261-1.672 2.552-2.434 3.901-0.7332 1.32-1.378 2.61-1.994 3.871h9.737z"/>
  <path id="path4827" style="stroke-width:3.982;fill:#ab0000" transform="matrix(.2933 0 0 .2933 15.13 12.17)" d="m265.4 101.7 97.5 222.7 56.5-18.3 3.6-90zm99.75 113.9 0.7285 0.0508c3.788 0.3376 7.301 2.262 10.54 5.918 1.337 1.48 2.372 3.232 3.035 5.176 0.6654 1.871 1.104 3.944 1.393 6.154 0.2152 2.205 0.2788 4.545 0.2676 6.953-0.0102 2.335-0.0927 4.738-0.1738 7.068l-0.1621 4.66c-0.061 1.747-0.0505 3.499 0.1074 5.262s0.3205 3.38 0.6367 4.789c0.3137 1.482 0.7887 2.537 1.422 3.238l19.38-17.19 4.432 4.908-25.49 22.67c-0.2837-0.2388-0.496-0.4714-0.707-0.7051l-0.6328-0.7012c-1.759-1.948-3.076-4.011-3.947-6.262-0.8713-2.251-1.519-4.632-1.875-6.992-0.2806-2.428-0.487-4.851-0.4004-7.326l0.248-7.135 0.1914-5.461c0.0634-1.82-0.0198-3.579-0.1856-5.123-0.1626-1.617-0.5472-3.177-1.082-4.602-0.4619-1.419-1.22-2.712-2.275-3.881-1.126-1.246-2.264-2.129-3.488-2.652-1.149-0.5911-2.31-0.8175-3.479-0.8262-1.169-0.009-2.272 0.2062-3.389 0.7852-1.111 0.4333-2.158 1.09-3.139 1.971-1.207 1.084-2.124 2.188-2.75 3.385-0.6994 1.192-1.25 2.32-1.582 3.465-0.4052 1.14-0.5868 2.15-0.6953 3.164-0.1033 0.8686-0.2023 1.591-0.293 2.096l-6.447-1.619c-0.0474-0.7332 0.0608-1.747 0.25-2.975 0.192-1.3 0.5326-2.663 1.094-4.084 0.4883-1.426 1.197-2.909 2.125-4.377 0.9283-1.468 2.149-2.914 3.582-4.201 4.376-3.928 8.678-5.745 12.77-5.605z"/>
  <path id="path3713" style="stroke-width:1.168;fill:#ab0000" d="m89.98 128.1v10.01l47.61-33.59-15.9 4.468z"/>
  <path id="path4822" style="stroke-width:3.982;fill:#ab0000" transform="matrix(.2933 0 0 .2933 15.13 12.17)" d="m255.3 102.7-166.9 107.7 4.881 90.4 55.42 23.8zm-107.2 109.3c4.121-0.0903 7.888 1.262 11.28 4.055 4.857 4.061 6.877 9.4 5.986 16.02-0.8945 6.689-4.671 14-11.48 22.08-6.808 8.077-13.4 13.1-19.85 15.14-2.448 0.7729-4.732 1.111-6.924 1.086-3.72-0.1883-7.093-1.536-10.12-4.047-4.93-4.062-6.95-9.402-6.129-16.09 0.8911-6.616 4.739-13.92 11.55-22 6.808-8.077 13.4-13.1 19.86-15.21 2.017-0.6368 3.963-0.9765 5.836-1.018zm0.7988 7.719c-2.049 0.0493-4.199 0.6816-6.375 1.895-2.173 1.14-4.443 2.789-6.736 4.947-2.217 2.086-4.522 4.534-6.689 7.131-2.244 2.668-4.193 5.268-5.922 7.869-1.729 2.602-2.94 5.065-3.705 7.387-0.7655 2.321-1.012 4.502-0.668 6.545 0.2744 1.969 1.218 3.727 2.98 5.131 1.477 1.255 3.127 1.928 4.877 2.021 0.2923 0.003 0.513 0.007 0.8086-0.0625 2.049-0.0493 4.124-0.6802 6.297-1.82 2.176-1.213 4.445-2.863 6.662-4.949 2.293-2.158 4.598-4.535 6.838-7.131 2.171-2.669 4.119-5.268 5.848-7.869 1.729-2.602 2.94-5.063 3.709-7.457 0.7652-2.321 1.086-4.502 0.7422-6.545-0.2744-1.969-1.294-3.657-3.057-5.061-1.69-1.403-3.56-2.081-5.609-2.031z"/>
  <path id="path3717" style="stroke-width:1.168;fill:#ab0000" d="m87.76 127.9v10.22l-45.58-35.23 15.78 6.161z"/>
 </g>
</svg>
